# xmcd
#
# Track frame offsets: 
#        150
#        15382
#        41662
#        57472
#
# Disc length: 1162 seconds
#
# Revision: 2
# Processed by: cddbd v1.5.2PL0 Copyright (c) Steve Scherf et al.
# Submitted via: ExactAudioCopyFreeDBPlugin 1.0
#
DISCID=2b048804
DTITLE=Tin Machine - Baby Universal [Single]
DYEAR=1991
DGENRE=Rock
TTITLE0=Baby Universal (radio edit)
TTITLE1=Baby Universal (extended version)
TTITLE2=Baby Universal (BBC live version)
TTITLE3=Stateside (BBC live version)
EXTD=
EXTT0=Radio Edit
EXTT1=Extended Version
EXTT2=BBC Live Version
EXTT3=BBC Live Version
PLAYORDER=
